<svg width="94" height="93" viewBox="0 0 94 93" fill="none" xmlns="http://www.w3.org/2000/svg">
<path d="M44.3717 38.1185C48.1803 38.1185 51.8014 38.8998 55.1017 40.3099C53.6134 36.8099 51.2931 33.7396 48.3908 31.3685C44.3791 28.0873 39.2502 26.1185 33.6608 26.1185C27.9811 26.1185 22.7698 28.1576 18.7308 31.5404C16.2699 33.599 14.2503 36.1615 12.8089 39.0599C17.0003 36.4388 21.9573 34.9193 27.2699 34.9193C29.7504 34.9193 32.1683 35.2592 34.4887 35.8881C36.6293 36.4779 38.6684 37.3178 40.559 38.3764C41.7973 38.2045 43.0785 38.1147 44.3676 38.1147L44.3717 38.1185ZM64.5707 1.57953L65.7309 7.00923C65.9028 7.77095 66.2504 8.43113 66.7504 8.93113C67.2504 9.43113 67.9106 9.78269 68.6723 9.95063L74.102 11.099C75.1801 11.3295 75.8715 12.3881 75.6411 13.4701C75.4692 14.2592 74.852 14.849 74.102 15.0092L68.6723 16.1694C67.9106 16.3296 67.2504 16.6811 66.7621 17.1811C66.2504 17.6928 65.891 18.353 65.7309 19.103L64.5707 24.5444C64.3519 25.6147 63.2895 26.3061 62.2113 26.0756C61.4105 25.9155 60.8324 25.2866 60.6722 24.5444L59.512 19.103C59.3518 18.353 58.9925 17.6928 58.4925 17.1928L58.4144 17.103C57.9261 16.642 57.305 16.3217 56.5863 16.1733L51.1449 15.0131C50.0746 14.7826 49.3832 13.724 49.6137 12.642C49.7738 11.8529 50.4027 11.2631 51.1449 11.1029L56.5863 9.9545C57.348 9.78262 57.9965 9.43497 58.4965 8.935C58.9965 8.42328 59.3558 7.7631 59.516 7.0131L60.6762 1.5834C60.9066 0.505296 61.9653 -0.186104 63.0473 0.0442964C63.8363 0.216176 64.4262 0.833356 64.5785 1.5834L64.5707 1.57953ZM63.9301 11.7515C63.4183 11.232 62.9808 10.6421 62.6215 10.0015C62.2699 10.65 61.8324 11.2398 61.3207 11.7515C60.8011 12.2633 60.2113 12.7008 59.559 13.0601C60.1605 13.3804 60.6996 13.7789 61.1879 14.2398L61.3168 14.3609C61.8285 14.8726 62.266 15.4625 62.6176 16.1109C62.9769 15.4625 63.4066 14.8726 63.9262 14.3609C64.4457 13.8492 65.0356 13.4117 65.6762 13.0601C65.0356 12.7007 64.4457 12.2593 63.9262 11.7515L63.9301 11.7515ZM79.8281 21.1031L81.3086 28.0328C81.539 29.1031 82.0468 30.0445 82.7578 30.7516C83.4765 31.4704 84.4062 31.9821 85.4766 32.2008L92.418 33.6813C93.4883 33.9118 94.1797 34.9704 93.9492 36.0524C93.789 36.8415 93.1601 37.4313 92.418 37.5915L85.4766 39.0603C84.4063 39.2908 83.4766 39.7986 82.7578 40.5212C82.0468 41.2322 81.539 42.1696 81.3086 43.24L79.8281 50.1697C79.5976 51.2478 78.539 51.9392 77.457 51.7088C76.6679 51.537 76.0859 50.9198 75.9258 50.1697L74.4453 43.24C74.2148 42.1697 73.707 41.2283 72.9961 40.5212C72.2773 39.8025 71.3477 39.2907 70.2656 39.0603L63.3359 37.5915C62.2578 37.3611 61.5664 36.3024 61.7968 35.2204C61.9686 34.4197 62.5858 33.8415 63.3359 33.6813L70.2656 32.2008C71.3437 31.9821 72.2773 31.4704 72.9961 30.7516C73.707 30.0329 74.2149 29.1032 74.4453 28.0328L75.9258 21.1031C76.1445 20.025 77.2149 19.3336 78.2852 19.564C79.0859 19.7359 79.6641 20.3531 79.8243 21.1031H79.8281ZM79.9296 33.5831C79.0507 32.7042 78.3515 31.6339 77.8788 30.4347C77.3984 31.6339 76.6991 32.7042 75.8202 33.5831C74.9413 34.462 73.8788 35.1612 72.6796 35.6339C73.8788 36.1144 74.9413 36.8136 75.8202 37.6925C76.6991 38.5714 77.3983 39.6339 77.8788 40.8331C78.3476 39.6339 79.0507 38.5714 79.9296 37.6925C80.8202 36.8136 81.8788 36.1144 83.078 35.6339C81.8788 35.1652 80.8163 34.462 79.9296 33.5831ZM60.2186 43.2042C61.4374 44.0753 62.5897 45.044 63.6483 46.1026L63.7577 46.2237C68.6288 51.1534 71.6288 57.9227 71.6288 65.3837C71.6288 72.9149 68.578 79.7357 63.6483 84.6647C58.7069 89.5944 51.8983 92.653 44.3673 92.653C39.5275 92.653 34.9884 91.3913 31.0583 89.1842C30.5466 89.2545 30.0388 89.3131 29.5388 89.3561H29.4802C28.7419 89.4147 27.9997 89.4576 27.2693 89.4576C19.7381 89.4576 12.9173 86.399 7.9883 81.4693C3.0469 76.5396 0 69.7194 0 62.1884C0 55.2196 2.6211 48.8484 6.9297 44.0284C8.168 37.837 11.5078 32.3874 16.168 28.4894C20.9063 24.5206 27.008 22.1299 33.656 22.1299C40.2068 22.1299 46.215 24.4385 50.918 28.2901C55.4961 32.0401 58.8399 37.2511 60.2188 43.2122L60.2186 43.2042ZM25.8596 85.4032C25.5979 85.1649 25.3401 84.9149 25.0901 84.6649C20.1604 79.7352 17.1018 72.9149 17.1018 65.3839C17.1018 57.8644 20.1604 51.044 25.0901 46.114C27.7112 43.4929 30.8596 41.3952 34.3713 40.0124C34.0627 39.9108 33.7619 39.8209 33.4494 39.7428C31.5002 39.2038 29.4299 38.9225 27.2697 38.9225C20.84 38.9225 15.0197 41.5241 10.8087 45.7311C10.629 45.9225 10.4376 46.11 10.2579 46.3014L10.2267 46.3327V46.3444C6.36728 50.4928 3.99618 56.0632 3.99618 62.1844C3.99618 68.6141 6.59778 74.4224 10.8048 78.6334C14.715 82.5318 19.9962 85.0553 25.8558 85.4029L25.8596 85.4032ZM34.4299 64.2122L42.7385 52.6102C43.3791 51.7196 44.6291 51.5086 45.5276 52.1493C45.7073 52.2782 45.8675 52.4384 45.9964 52.618L54.305 64.22C54.8245 64.931 54.7933 65.8802 54.305 66.5481L45.9847 78.1501C45.3441 79.0486 44.0941 79.2517 43.1956 78.6111C43.0159 78.4822 42.8557 78.322 42.7346 78.1423L34.4143 66.5403C33.8948 65.8294 33.9261 64.8801 34.4261 64.2122H34.4299ZM44.3713 57.2122L38.5002 65.3841L44.3713 73.5638L50.2307 65.3841L44.3713 57.2122ZM60.8203 48.931C56.6094 44.7201 50.7893 42.1224 44.3713 42.1224C37.9416 42.1224 32.1333 44.724 27.9223 48.931C23.7035 53.1302 21.102 58.951 21.102 65.38C21.102 71.809 23.7114 77.618 27.9223 81.829C32.1332 86.0399 37.9423 88.6493 44.3713 88.6493C50.7932 88.6493 56.6093 86.0399 60.8203 81.829C65.0312 77.6181 67.6289 71.809 67.6289 65.38C67.6289 59.0011 65.0703 53.22 60.918 49.028L60.8165 48.9265L60.8203 48.931Z" fill="white"/>
</svg>
